<svg xmlns="http://www.w3.org/2000/svg" width="13.566" height="17.089" viewBox="0 0 13.566 17.089">
  <g id="Group_4011" data-name="Group 4011" transform="translate(2127.753 860.623)">
    <path id="Path_741" data-name="Path 741" d="M-2048.893-730.082a3.377,3.377,0,0,1-2.338,2.542,2.9,2.9,0,0,1-.976.149A3.421,3.421,0,0,1-2055.59-730a.584.584,0,0,1,.38-.766.587.587,0,0,1,.737.484,2.263,2.263,0,0,0,1.97,1.762,2.27,2.27,0,0,0,2.445-1.65c.017-.063.03-.127.049-.189a.577.577,0,0,1,.708-.408A.565.565,0,0,1-2048.893-730.082Z" transform="translate(-68.704 -123.653)" fill="#a6a6a6"/>
    <path id="Path_742" data-name="Path 742" d="M-2114.219-845.95q-.133-2.871-.271-5.741c-.056-1.173-.1-2.347-.176-3.519a1.672,1.672,0,0,0-1.687-1.57c-.344,0-.688-.009-1.032,0-.148.006-.176-.046-.169-.178a3.768,3.768,0,0,0-.04-.8,3.435,3.435,0,0,0-2.839-2.83,3.427,3.427,0,0,0-3.584,1.829,3.433,3.433,0,0,0-.372,1.611c0,.363,0,.362-.369.363-.3,0-.605,0-.908,0a1.675,1.675,0,0,0-1.606,1.522c-.094,1.682-.168,3.365-.249,5.047q-.1,2.133-.2,4.266a4.248,4.248,0,0,0,0,1.012,1.7,1.7,0,0,0,1.708,1.4q2.519,0,5.038,0t5.037,0a1.7,1.7,0,0,0,1.719-1.4A4.358,4.358,0,0,0-2114.219-845.95Zm-8.237-12.976a2.172,2.172,0,0,1,2.293-.4,2.2,2.2,0,0,1,1.442,1.771,5.423,5.423,0,0,1,.032.638c.008.121-.037.145-.148.144-.706,0-1.411,0-2.116,0s-1.435,0-2.152,0c-.117,0-.142-.031-.147-.146A2.325,2.325,0,0,1-2122.456-858.927Zm6.506,14.253h-9.983c-.472,0-.69-.224-.668-.689q.194-4.15.39-8.3c.021-.462.036-.924.065-1.386a.566.566,0,0,1,.63-.59l6.371-.016q1.352,0,2.7-.01a.575.575,0,0,1,.647.6c.06,1.131.11,2.263.163,3.394q.137,2.9.274,5.794.013.285.021.569A.567.567,0,0,1-2115.95-844.674Z" transform="translate(0 0)" fill="#a6a6a6"/>
    <path id="Path_743" data-name="Path 743" d="M-2048.893-730.082a3.377,3.377,0,0,1-2.338,2.542,2.9,2.9,0,0,1-.976.149A3.421,3.421,0,0,1-2055.59-730a.584.584,0,0,1,.38-.766.587.587,0,0,1,.737.484,2.263,2.263,0,0,0,1.97,1.762,2.27,2.27,0,0,0,2.445-1.65c.017-.063.03-.127.049-.189a.577.577,0,0,1,.708-.408A.565.565,0,0,1-2048.893-730.082Z" transform="translate(-68.704 -123.653)" fill="#a6a6a6"/>
    <path id="Path_744" data-name="Path 744" d="M-2048.893-730.082a3.377,3.377,0,0,1-2.338,2.542,2.9,2.9,0,0,1-.976.149A3.421,3.421,0,0,1-2055.59-730a.584.584,0,0,1,.38-.766.587.587,0,0,1,.737.484,2.263,2.263,0,0,0,1.97,1.762,2.27,2.27,0,0,0,2.445-1.65c.017-.063.03-.127.049-.189a.577.577,0,0,1,.708-.408A.565.565,0,0,1-2048.893-730.082Z" transform="translate(-68.704 -123.653)" fill="#a6a6a6"/>
  </g>
</svg>
