<svg xmlns="http://www.w3.org/2000/svg" width="24" height="24" viewBox="0 0 24 24">
  <g id="Group_4040" data-name="Group 4040" transform="translate(374.888 956.844)">
    <path id="Path_712" data-name="Path 712" d="M-362.488-937.429c0,.392.014.784-.006,1.174-.01.2.062.279.243.353a1.564,1.564,0,0,1,.933,1.748,1.6,1.6,0,0,1-1.547,1.309,1.6,1.6,0,0,1-1.595-1.311,1.577,1.577,0,0,1,.959-1.759.282.282,0,0,0,.218-.317q-.015-1.212,0-2.425c0-.165-.054-.21-.2-.224a5.843,5.843,0,0,1-3.219-1.341c-.113-.093-.169-.072-.262.022-.585.593-1.171,1.186-1.77,1.765-.137.132-.074.221-.023.346a1.586,1.586,0,0,1-.644,1.96,1.6,1.6,0,0,1-2.041-.308,1.6,1.6,0,0,1-.032-2.066,1.611,1.611,0,0,1,1.859-.44.262.262,0,0,0,.342-.07q.858-.874,1.732-1.732c.11-.108.125-.172.019-.3a5.792,5.792,0,0,1-1.321-3.175c-.017-.178-.072-.229-.255-.226-.808.012-1.617.008-2.425,0-.136,0-.214.019-.272.171a1.584,1.584,0,0,1-1.755,1.008,1.6,1.6,0,0,1-1.333-1.578,1.6,1.6,0,0,1,1.335-1.576,1.59,1.59,0,0,1,1.755,1.01.219.219,0,0,0,.247.171c.825-.007,1.65-.009,2.475,0,.165,0,.209-.054.223-.2a5.842,5.842,0,0,1,1.342-3.219c.093-.112.073-.17-.021-.263-.593-.585-1.186-1.171-1.765-1.771-.132-.137-.221-.074-.346-.023a1.589,1.589,0,0,1-1.846-.48,1.594,1.594,0,0,1-.071-1.907,1.612,1.612,0,0,1,1.838-.591,1.568,1.568,0,0,1,1.079,1.545,1.423,1.423,0,0,1-.153.625.183.183,0,0,0,.047.256q.9.887,1.784,1.786c.1.1.158.1.263.012a5.843,5.843,0,0,1,3.221-1.337c.16-.015.2-.076.2-.23-.008-.817-.007-1.633,0-2.45a.234.234,0,0,0-.176-.269,1.586,1.586,0,0,1-1-1.758,1.6,1.6,0,0,1,1.581-1.33,1.6,1.6,0,0,1,1.574,1.339,1.589,1.589,0,0,1-1.015,1.752.218.218,0,0,0-.166.251c.006.825.009,1.65,0,2.475,0,.171.064.206.208.22a5.868,5.868,0,0,1,3.219,1.343c.1.079.151.089.245-.006.6-.606,1.195-1.209,1.8-1.8.123-.12.054-.2.012-.3a1.57,1.57,0,0,1,1.2-2.177,1.591,1.591,0,0,1,1.659.764,1.6,1.6,0,0,1-.2,1.859,1.566,1.566,0,0,1-1.776.415.313.313,0,0,0-.421.085q-.82.841-1.661,1.662c-.126.124-.159.2-.03.357a5.754,5.754,0,0,1,1.3,3.131c.018.178.066.247.265.244.808-.014,1.617-.009,2.425,0a.234.234,0,0,0,.265-.181,1.586,1.586,0,0,1,1.762-1,1.6,1.6,0,0,1,1.325,1.56,1.6,1.6,0,0,1-1.32,1.588,1.582,1.582,0,0,1-1.765-.989.234.234,0,0,0-.261-.187q-1.237.012-2.475,0c-.146,0-.2.032-.215.185a5.832,5.832,0,0,1-1.35,3.241c-.084.1-.075.155.015.243.6.6,1.209,1.195,1.8,1.8.127.131.219.057.328.014a1.6,1.6,0,0,1,2.093.914,1.588,1.588,0,0,1-1,2.071,1.509,1.509,0,0,1-1.648-.411,1.505,1.505,0,0,1-.324-1.708.288.288,0,0,0-.073-.38q-.866-.849-1.714-1.715c-.108-.11-.171-.126-.3-.019a5.767,5.767,0,0,1-3.174,1.322c-.182.018-.232.076-.225.257C-362.477-938.229-362.488-937.829-362.488-937.429Z" transform="translate(0 0)" fill="#fe7602"/>
    <path id="Path_713" data-name="Path 713" d="M-298.741-887.287a6.574,6.574,0,0,1,6.537,6.546,6.569,6.569,0,0,1-6.538,6.575,6.563,6.563,0,0,1-6.584-6.624A6.569,6.569,0,0,1-298.741-887.287Z" transform="translate(-64.122 -64.118)" fill="#fff" stroke="#fe7602" stroke-miterlimit="10" stroke-width="1"/>
    <path id="Path_714" data-name="Path 714" d="M-205.675-944.072a.8.8,0,0,1-.8.807.8.8,0,0,1-.794-.791.8.8,0,0,1,.8-.807A.8.8,0,0,1-205.675-944.072Z" transform="translate(-156.414 -11.18)" fill="#fe7602"/>
    <path id="Path_715" data-name="Path 715" d="M-362.108-789.228a.8.8,0,0,1,.8.787.8.8,0,0,1-.8.811.8.8,0,0,1-.8-.787A.8.8,0,0,1-362.108-789.228Z" transform="translate(-11.179 -156.415)" fill="#fe7602"/>
    <path id="Path_716" data-name="Path 716" d="M-50.039-788.43a.8.8,0,0,1-.812.8.8.8,0,0,1-.786-.8.8.8,0,0,1,.812-.8A.8.8,0,0,1-50.039-788.43Z" transform="translate(-301.649 -156.413)" fill="#fe7602"/>
    <path id="Path_717" data-name="Path 717" d="M-206.512-632a.8.8,0,0,1-.761-.823.8.8,0,0,1,.836-.774.806.806,0,0,1,.762.823A.8.8,0,0,1-206.512-632Z" transform="translate(-156.414 -301.644)" fill="#fe7602"/>
    <path id="Path_718" data-name="Path 718" d="M-95.65-898.456a.791.791,0,0,1-.785.8.8.8,0,0,1-.812-.778.8.8,0,0,1,.8-.813A.8.8,0,0,1-95.65-898.456Z" transform="translate(-259.087 -53.749)" fill="#fe7602"/>
    <path id="Path_719" data-name="Path 719" d="M-316.5-679.205a.813.813,0,0,1,.809.785.8.8,0,0,1-.8.809.789.789,0,0,1-.792-.793A.8.8,0,0,1-316.5-679.205Z" transform="translate(-53.749 -259.085)" fill="#fe7602"/>
    <path id="Path_720" data-name="Path 720" d="M-317.3-898.452a.8.8,0,0,1,.787-.8.8.8,0,0,1,.81.8.8.8,0,0,1-.8.788A.792.792,0,0,1-317.3-898.452Z" transform="translate(-53.742 -53.744)" fill="#fe7602"/>
    <path id="Path_721" data-name="Path 721" d="M-95.656-678.4a.79.79,0,0,1-.784.8.8.8,0,0,1-.814-.775.813.813,0,0,1,.8-.818A.8.8,0,0,1-95.656-678.4Z" transform="translate(-259.081 -259.094)" fill="#fe7602"/>
    <path id="Path_722" data-name="Path 722" d="M-256.977-766.354a6.207,6.207,0,0,1,2.931.635,2.849,2.849,0,0,1,1.1.988,2.406,2.406,0,0,1,.381,1.338c0,.458.006.917,0,1.375-.008.492-.241.812-.565.8s-.525-.322-.534-.794c-.007-.382-.017-.765,0-1.145a1.031,1.031,0,0,0-.37-.908,3.113,3.113,0,0,0-1.483-.669,6.5,6.5,0,0,0-3.612.211,3.726,3.726,0,0,0-.544.274,1.223,1.223,0,0,0-.614,1.314,7.239,7.239,0,0,1,0,1.007c-.019.428-.26.721-.56.711s-.522-.293-.531-.7c-.014-.58-.027-1.164.011-1.74a2.259,2.259,0,0,1,.765-1.557,4.289,4.289,0,0,1,2.319-1.035A5.769,5.769,0,0,1-256.977-766.354Z" transform="translate(-105.913 -177.755)" fill="#fe7602"/>
    <path id="Path_723" data-name="Path 723" d="M-225.108-843.683a2.3,2.3,0,0,1-2.327,2.275,2.3,2.3,0,0,1-2.264-2.336A2.3,2.3,0,0,1-227.392-846,2.3,2.3,0,0,1-225.108-843.683Z" transform="translate(-135.486 -103.436)" fill="#fe7602"/>
  </g>
</svg>
