<svg xmlns="http://www.w3.org/2000/svg" width="11.859" height="16" viewBox="0 0 11.859 16">
  <g id="Group_3955" data-name="Group 3955" transform="translate(-1301.367 -2735.498)">
    <path id="Path_628" data-name="Path 628" d="M1306.362,2746.376a7.92,7.92,0,0,1-.455,1.427,3.24,3.24,0,0,0,.307,3.167.331.331,0,0,1,.039.391.3.3,0,0,1-.358.121,5.808,5.808,0,0,1-4.089-3.536,5.632,5.632,0,0,1,.224-4.828,9.122,9.122,0,0,0,.957-2.7c.022-.14.046-.28.054-.421a.307.307,0,0,1,.573-.161,4.871,4.871,0,0,1,.71,1.286,2.6,2.6,0,0,0,.313-.484,9.656,9.656,0,0,0,1.294-4.794.315.315,0,0,1,.159-.309.325.325,0,0,1,.345.031,7.945,7.945,0,0,1,3.676,4.613.188.188,0,0,0,.062.117,2.206,2.206,0,0,0-.068-1.616.319.319,0,0,1,.04-.389.3.3,0,0,1,.453.031,9.222,9.222,0,0,1,2.175,3.606,8.287,8.287,0,0,1,.436,3.151,6.975,6.975,0,0,1-4.426,6.3c-.073.032-.146.065-.222.091a.3.3,0,0,1-.365-.449,5.522,5.522,0,0,0-.213-6.231.55.55,0,0,0-.057-.051,5.544,5.544,0,0,1-.063,1.192,4.4,4.4,0,0,1-.81,1.822.282.282,0,0,1-.369.119.311.311,0,0,1-.186-.362A2.416,2.416,0,0,0,1306.362,2746.376Z" transform="translate(0)" fill="#fe7602"/>
  </g>
</svg>
