<svg xmlns="http://www.w3.org/2000/svg" width="61.108" height="58.274" viewBox="0 0 61.108 58.274">
  <g id="Group_4024" data-name="Group 4024" transform="translate(-301.717 -471.405)">
    <path id="Path_637" data-name="Path 637" d="M47.755,340.584l11.293,29.786a3.192,3.192,0,0,0,4.117,1.853l18.649-7.07a3.193,3.193,0,0,0,1.853-4.117L72.374,331.249A3.189,3.189,0,0,0,70.7,329.47l-13.164-5.926a2.859,2.859,0,0,0-3.78,1.433l-5.926,13.164A3.193,3.193,0,0,0,47.755,340.584Zm8.35-8.007a2.559,2.559,0,1,1,3.3,1.485A2.559,2.559,0,0,1,56.105,332.576Z" transform="matrix(0.588, -0.809, 0.809, 0.588, 12.221, 349.236)" fill="#fe7602"/>
    <line id="Line_48" data-name="Line 48" x1="12" y1="11" transform="translate(303.25 485.25)" fill="none" stroke="#707070" stroke-width="1"/>
    <line id="Line_49" data-name="Line 49" x1="4" y1="8" transform="translate(303.25 485.25)" fill="none" stroke="#707070" stroke-width="1"/>
  </g>
</svg>
