<svg xmlns="http://www.w3.org/2000/svg" width="16" height="16" viewBox="0 0 16 16">
  <path id="Path_138" data-name="Path 138" d="M8,0a8,8,0,1,0,8,8A8.013,8.013,0,0,0,8,0m3.306,8.585a11.128,11.128,0,0,1-1.643,1.633c-.441.385-.887.764-1.333,1.143a.447.447,0,0,1-.621.029,35.356,35.356,0,0,1-2.658-2.38,3.366,3.366,0,0,1-.935-1.659,2.333,2.333,0,0,1,1.71-2.8c.114-.024.232-.031.341-.045a2.055,2.055,0,0,1,1.721.808c.085.1.12.13.221.008a2,2,0,0,1,2.133-.752,2.12,2.12,0,0,1,1.62,1.692,2.671,2.671,0,0,1-.555,2.325" transform="translate(0 -0.001)" fill="#a6a6a6"/>
</svg>
